<svg xmlns="http://www.w3.org/2000/svg" id="Capa_1" height="512" viewBox="0 0 488 488" width="512"><path d="m466 69.752c0-3.314-3.081-5.752-6.395-5.752h-95.231c.445-2.013-.148-4.116-1.58-5.6l-28.982-29.343c-2.179-2.219-5.693-2.405-8.094-.429l-20.418 16.91c-9.898-5.98-20.609-10.499-31.8-13.416l-2.567-26.6c-.29-3.094-2.863-5.474-5.971-5.522h-41.562c-3.108.046-5.683 2.427-5.972 5.522l-2.567 26.542c-11.221 2.856-21.953 7.373-31.84 13.4l-20.381-16.88c-2.384-1.974-5.879-1.81-8.068.378l-29.341 29.408c-1.446 1.488-2.047 3.604-1.6 5.63h-95.237c-3.314 0-6.394 2.438-6.394 5.752v344.1c.175 3.416 2.974 6.107 6.394 6.148h150.531l-15.688 56h-27.4c-3.314 0-6 2.686-6 6s2.686 6 6 6h216.323c3.314 0 6-2.686 6-6s-2.686-6-6-6h-27.4l-15.688-56h150.53c3.423-.039 6.225-2.734 6.398-6.153v-65.447-12zm-306.816-28.433 19.532 16.195c2.035 1.687 4.934 1.844 7.139.386 10.893-7.217 23.043-12.326 35.82-15.061 2.567-.594 4.465-2.765 4.711-5.388l2.457-25.451h30.672l2.457 25.451c.249 2.616 2.156 4.773 4.722 5.34 12.775 2.832 24.93 7.957 35.875 15.127 2.197 1.417 5.058 1.249 7.073-.416l19.506-16.167 21.293 21.515-16.209 19.55c-1.691 2.039-1.845 4.946-.378 7.152 7.229 10.872 12.357 23.003 15.116 35.764.631 2.568 2.82 4.453 5.453 4.695l25.577 2.459v30.617l-25.226 2.452c-2.601.249-4.755 2.127-5.356 4.67-2.87 12.761-8.018 24.901-15.195 35.836-1.438 2.197-1.281 5.073.388 7.1l16.177 19.523-21.609 21.56-19.534-16.194c-2.035-1.688-4.936-1.845-7.141-.386-10.893 7.217-23.043 12.325-35.82 15.061-2.531.47-4.45 2.551-4.712 5.112l-2.457 25.179h-30.672l-2.457-25.175c-.258-2.583-2.175-4.694-4.721-5.2-12.771-2.807-24.927-7.909-35.876-15.058-2.204-1.407-5.065-1.225-7.073.451l-19.532 16.205-21.6-21.554 16.187-19.52c1.691-2.039 1.844-4.945.378-7.151-7.23-10.871-12.357-23.002-15.116-35.763-.631-2.568-2.82-4.453-5.453-4.695l-25.58-2.459v-30.611l25.577-2.457c2.604-.246 4.762-2.125 5.363-4.671 2.871-12.761 8.018-24.901 15.195-35.836 1.438-2.197 1.281-5.073-.388-7.1l-16.177-19.527zm-125.184 34.681h98.666l9.1 10.847c-5.973 9.867-10.494 20.544-13.424 31.7l-26.749 2.539c-3.104.269-5.51 2.826-5.59 5.941v41.507c.077 3.121 2.481 5.69 5.59 5.972l26.646 2.569c2.882 11.204 7.419 21.915 13.461 31.781l-16.87 20.369c-1.976 2.389-1.807 5.89.391 8.077l29.346 29.281c2.191 2.188 5.688 2.349 8.071.372l20.414-16.926c9.899 5.978 20.61 10.494 31.8 13.409l2.568 26.316c.315 3.043 2.922 5.33 5.98 5.246h41.566c3.055.079 5.657-2.206 5.972-5.246l2.567-26.4c11.219-2.834 21.951-7.328 31.841-13.334l20.376 16.917c2.38 1.978 5.874 1.822 8.068-.361l29.34-29.276c2.193-2.189 2.358-5.688.381-8.074l-16.912-20.4c5.974-9.889 10.496-20.585 13.425-31.761l26.4-2.566c3.103-.289 5.499-2.854 5.576-5.97v-41.507c-.077-3.121-2.481-5.689-5.59-5.972l-26.646-2.569c-2.884-11.166-7.422-21.839-13.464-31.662l9.034-10.819h98.666v260h-420zm278.3 400h-136.6l15.689-56h105.222zm141.7-68h-420v-60h420z"></path><path d="m244.03 236.961c49.256-.068 89.131-40.053 89.063-89.309s-40.053-89.131-89.309-89.063c-49.208.068-89.064 39.978-89.063 89.187.09 49.267 40.042 89.164 89.309 89.185zm0-166.371c42.629.068 77.131 34.68 77.063 77.309s-34.68 77.131-77.309 77.063c-42.581-.068-77.063-34.605-77.063-77.186.082-42.643 34.666-77.172 77.309-77.186z"></path><path d="m181.612 152.337 36.788 27.818c2.629 2.017 6.395 1.522 8.413-1.107s1.522-6.395-1.107-8.413c-.022-.017-.045-.034-.068-.051l-30.459-23.032 30.459-23.033c2.657-1.98 3.206-5.739 1.226-8.396s-5.739-3.206-8.396-1.226c-.023.017-.045.034-.068.051l-36.788 27.818c-2.643 1.999-3.165 5.762-1.166 8.405.333.44.725.833 1.166 1.166z"></path><path d="m262.422 124.519 30.459 23.033-30.458 23.032c-2.668 1.966-3.236 5.722-1.27 8.39s5.722 3.236 8.39 1.27c.04-.029.079-.059.118-.089l36.788-27.818c2.643-1.999 3.165-5.762 1.166-8.405-.333-.441-.726-.833-1.166-1.166l-36.787-27.818c-2.643-1.999-6.406-1.477-8.405 1.166-2 2.643-1.478 6.406 1.165 8.405z"></path><path d="m236.819 195.2c3.276.496 6.334-1.759 6.83-5.035l12.559-82.972c.497-3.277-1.756-6.336-5.033-6.833s-6.336 1.756-6.833 5.033l-12.558 82.972c-.498 3.276 1.753 6.336 5.029 6.834.002 0 .004.001.006.001z"></path></svg>