<svg xmlns="http://www.w3.org/2000/svg" width="100.000000pt" height="100.000000pt" viewBox="0 0 100.000000 100.000000" preserveAspectRatio="xMidYMid meet"><g transform="translate(0.000000,100.000000) scale(0.100000,-0.100000)" fill="#000000" stroke="none"><path d="M413 857 l-73 -41 0 -81 0 -82 77 -41 c42 -23 80 -42 84 -42 4 0 38 17 76 39 l68 39 0 87 0 87 -68 39 c-38 22 -74 39 -80 38 -7 0 -45 -19 -84 -42z m110 -38 c32 -17 32 -18 11 -34 -24 -18 -44 -18 -68 0 -20 15 -20 15 0 30 23 18 29 18 57 4z m-78 -91 c18 -8 25 -19 25 -40 0 -33 -1 -33 -40 -13 -21 11 -30 23 -30 40 0 28 8 30 45 13z m145 -16 c0 -21 -7 -32 -25 -40 -35 -16 -35 -16 -35 16 0 20 7 32 23 40 33 16 37 14 37 -16z"></path><path d="M233 698 l-73 -40 0 -88 0 -88 -35 -21 -36 -21 3 -80 3 -81 77 -42 78 -42 75 40 75 40 0 87 0 87 -74 40 c-43 24 -80 39 -90 35 -13 -5 -16 2 -16 45 0 49 1 51 45 77 39 23 45 30 45 60 0 19 -1 34 -2 33 -2 0 -36 -19 -75 -41z m42 -250 c32 -14 32 -25 0 -40 -20 -9 -32 -8 -58 4 l-32 15 30 16 c37 20 29 19 60 5z m-80 -94 c25 -16 36 -64 15 -64 -24 0 -60 34 -60 56 0 28 11 30 45 8z m145 -12 c0 -21 -7 -32 -25 -40 -34 -16 -35 -16 -35 12 0 14 10 32 22 40 31 22 38 20 38 -12z"></path><path d="M690 704 c0 -29 6 -37 45 -60 44 -25 45 -27 45 -76 0 -43 -2 -49 -18 -44 -10 4 -48 -11 -92 -37 l-75 -42 0 -83 0 -83 77 -42 78 -42 75 40 75 40 0 87 c0 87 0 88 -30 103 -30 15 -30 16 -30 105 l0 89 -75 39 -75 39 0 -33z m85 -256 c32 -14 32 -25 0 -40 -20 -9 -32 -8 -58 4 l-32 15 30 16 c37 20 29 19 60 5z m-80 -94 c25 -16 36 -64 15 -64 -24 0 -60 34 -60 56 0 28 11 30 45 8z m145 -12 c0 -21 -7 -32 -25 -40 -34 -16 -35 -16 -35 12 0 14 10 32 22 40 31 22 38 20 38 -12z"></path><path d="M348 213 l-27 -17 86 -48 c47 -26 89 -48 93 -48 9 0 170 90 170 94 0 2 -11 11 -25 20 -25 16 -28 16 -86 -15 l-61 -33 -58 32 c-31 18 -59 32 -61 32 -2 0 -16 -8 -31 -17z"></path></g></svg>